<svg width="16" height="16" viewBox="0 0 64 64" fill="none" xmlns="http://www.w3.org/2000/svg">
<path d="M15.9974 61.3669C16.2179 61.5244 16.5238 61.4775 16.6871 61.2612L31.648 41.438L46.6089 61.2612C46.7722 61.4775 47.0781 61.5244 47.2986 61.3669L52.6746 57.5269C52.8929 57.371 52.9493 57.0706 52.8024 56.8462L39.3037 36.2233L59.4943 27.499C59.7348 27.3951 59.8543 27.1232 59.7683 26.8757L57.7202 20.9877C57.6306 20.73 57.3508 20.5917 57.0916 20.6771L36.3402 27.5114L35.2194 3.97622C35.2067 3.70962 34.9869 3.5 34.72 3.5H28.576C28.3091 3.5 28.0893 3.70962 28.0766 3.97622L26.9558 27.5114L6.20441 20.6771C5.94519 20.5917 5.66541 20.73 5.57575 20.9877L3.52775 26.8757C3.44169 27.1232 3.56119 27.3951 3.80167 27.499L23.9923 36.2233L10.4936 56.8462C10.3468 57.0706 10.4031 57.371 10.6214 57.5269L15.9974 61.3669Z" fill="#FFFF66" stroke="#FFFFAF" stroke-linejoin="round"/>
</svg>
